<?xml version="1.0" encoding="utf-8"?>
<!-- Svg Vector Icons : http://www.onlinewebfonts.com/icon -->
<!DOCTYPE svg PUBLIC "-//W3C//DTD SVG 1.1//EN" "http://www.w3.org/Graphics/SVG/1.1/DTD/svg11.dtd">
<svg version="1.1" xmlns="http://www.w3.org/2000/svg" xmlns:xlink="http://www.w3.org/1999/xlink" x="0px" y="0px" viewBox="0 0 1000 1000" enable-background="new 0 0 1000 1000" xml:space="preserve">
<metadata> Svg Vector Icons : http://www.onlinewebfonts.com/icon </metadata>
<g><path d="M904.8,925.4h-42.6l0,0H137.8h0H95.2c-47.1,0-85.2-38.1-85.2-85.1V266c0-47,38.2-85.1,85.2-85.1h42.6h0l0,0h138.5l53.3-85.1c0-11.7,30.8-21.3,42.6-21.3h255.6c11.8,0,42.6,9.5,42.6,21.3l53.3,85.1h138.5h42.6c47.1,0,85.2,38.1,85.2,85.1v574.3C990,887.3,951.8,925.4,904.8,925.4L904.8,925.4z M500,266c-153,0-277,123.8-277,276.5c0,152.7,124,276.5,277,276.5c153,0,276.9-123.8,277-276.5v0C776.9,389.8,653,266,500,266L500,266z M500,734c-105.9,0-191.7-85.7-191.7-191.4c0-105.7,85.8-191.4,191.7-191.4c105.9,0,191.7,85.7,191.7,191.4C691.7,648.3,605.9,734,500,734L500,734z"/></g>
</svg>