<?xml version="1.0" encoding="utf-8"?>
<!-- Svg Vector Icons : http://www.onlinewebfonts.com/icon -->
<!DOCTYPE svg PUBLIC "-//W3C//DTD SVG 1.1//EN" "http://www.w3.org/Graphics/SVG/1.1/DTD/svg11.dtd">
<svg version="1.1" xmlns="http://www.w3.org/2000/svg" xmlns:xlink="http://www.w3.org/1999/xlink" x="0px" y="0px" viewBox="0 0 1000 1000" enable-background="new 0 0 1000 1000" xml:space="preserve">
<metadata> Svg Vector Icons : http://www.onlinewebfonts.com/icon </metadata>
<g><g transform="translate(0.000000,511.000000) scale(0.100000,-0.100000)"><path d="M3663.7,4982.3c-982.2-67.3-1945.8-545.6-2600.5-1291c-424.9-483-750-1128.4-875.4-1734.5c-222.9-1061.1-18.6-2103.7,582.8-2986c1165.6-1708.9,3480.6-2194.2,5226.7-1098.3l222.9,139.3l1330.4-1332.8c1465.1-1462.8,1448.9-1451.2,1713.6-1451.2c95.2,0,174.2,16.3,243.8,48.8c123.1,60.4,304.2,248.4,355.3,369.2c55.7,125.4,46.4,343.6-16.3,469c-34.8,74.3-450.5,506.2-1395.5,1451.2L7109.4-1087.2l92.9,146.3c267,417.9,469,947.4,554.9,1455.8c44.1,262.4,51.1,357.6,39.5,731.4c-18.6,636.2-132.3,1102.9-399.4,1620.7C6675.2,4283.4,5247.2,5091.4,3663.7,4982.3z M4471.7,3835.3c510.8-97.5,982.2-341.3,1365.3-705.9c366.9-348.3,640.9-808,773.2-1291c60.4-215.9,65-262.4,65-696.6c0-431.9-4.6-480.6-62.7-696.6c-74.3-278.6-292.6-729.1-455.1-942.7c-171.8-225.2-524.7-548-750-689.6c-928.8-575.8-2103.7-548-3006.9,69.7C2173-964.1,1834-625.1,1694.7-413.8c-401.7,606-554.9,1277.1-450.4,1969C1450.9,2927.4,2681.5,3942.1,4063,3879.4C4195.4,3872.4,4378.8,3853.8,4471.7,3835.3z"/></g></g>
</svg>